<svg xmlns="http://www.w3.org/2000/svg" viewBox="0 0 24 24" width="512" height="512"><g fill="#057d7b"><path d="M12 11.953c-.665 0-1.203.518-1.203 1.156 0 .427.243.795.601.996v1.316c0 .319.271.579.602.579s.602-.26.602-.578v-1.316c.358-.201.602-.569.602-.996-.001-.639-.539-1.157-1.204-1.157z"/><path d="M12 0C5.373 0 0 5.373 0 12s5.373 12 12 12 12-5.373 12-12S18.627 0 12 0zm0 5c2.393 0 4 1.607 4 4h-1.25a2.75 2.75 0 1 0-5.5 0H8c0-2.393 1.607-4 4-4zm5 11.5a1.5 1.5 0 0 1-1.5 1.5h-7A1.5 1.5 0 0 1 7 16.5v-5A1.5 1.5 0 0 1 8.5 10h7a1.5 1.5 0 0 1 1.5 1.5v5z"/></g></svg>