<svg xmlns="http://www.w3.org/2000/svg" viewBox="0 0 44 44" width="512" height="512"><g fill="#057d7b"><path d="M22 15c-4.4 0-8 3.6-8 8s3.6 8 8 8 8-3.6 8-8-3.6-8-8-8zm2 9c0 .6-.4 1-1 1h-2c-.6 0-1-.4-1-1v-6c0-.6.4-1 1-1h2c.6 0 1 .4 1 1v6z"/><path d="M22 0C9.8 0 0 9.8 0 22s9.8 22 22 22 22-9.8 22-22S34.2 0 22 0zm0 35c-6.6 0-12-5.4-12-12 0-5.5 3.7-10.1 8.7-11.5.2-.1.4-.3.4-.5v-1c0-.6.4-1 1-1h4c.6 0 1 .4 1 1v1c0 .2.1.4.4.5 1.2.3 2.3.9 3.3 1.5.2.1.5.1.6-.1l.5-.5c.4-.4 1-.4 1.4 0l1.4 1.4c.4.4.4 1 0 1.4l-.5.5c-.2.2-.2.4-.1.6 1.3 1.9 2 4.2 2 6.6C34 29.6 28.6 35 22 35z"/></g></svg>